<?xml version="1.0" encoding="UTF-8"?><svg id="a" xmlns="http://www.w3.org/2000/svg" viewBox="0 0 373 91"><path d="M62.3,1c9,0,16.03,2.58,21.1,7.75,5.07,5.17,7.6,12.45,7.6,21.85,0,4.6-.65,8.73-1.95,12.4-1.3,3.67-3.18,6.75-5.65,9.25-2.47,2.5-5.48,4.42-9.05,5.75-3.57,1.33-7.58,2-12.05,2h-1.3c-.83,0-1.5,.67-1.5,1.5v4.1c0,.83,.67,1.5,1.5,1.5h29.5c.83,0,1.5,.67,1.5,1.5v20.9c0,.83-.67,1.5-1.5,1.5H1.5c-.83,0-1.5-.67-1.5-1.5v-20.9c0-.83,.67-1.5,1.5-1.5H31c.83,0,1.5-.67,1.5-1.5v-4.1c0-.83-.67-1.5-1.5-1.5h-1.4c-4.47,0-8.47-.67-12-2-3.53-1.33-6.53-3.25-9-5.75-2.47-2.5-4.35-5.58-5.65-9.25-1.3-3.67-1.95-7.8-1.95-12.4,0-9.4,2.53-16.68,7.6-21.85C13.67,3.58,20.67,1,29.6,1H62.3Zm-2.2,33.6c1.27,0,2.27-.3,3-.9,.73-.6,1.1-1.63,1.1-3.1s-.38-2.62-1.15-3.25c-.77-.63-1.75-.95-2.95-.95h-28.1c-1.2,0-2.2,.32-3,.95-.8,.63-1.2,1.72-1.2,3.25,0,1.4,.4,2.42,1.2,3.05,.8,.63,1.8,.95,3,.95h28.1Z"/><path d="M94,89.5v-20.9c0-.83,.67-1.5,1.5-1.5h29.5c.83,0,1.5-.67,1.5-1.5v-8.3c0-.83,.67-1.5,1.5-1.5h24c.83,0,1.5,.67,1.5,1.5v8.3c0,.83,.67,1.5,1.5,1.5h29.5c.83,0,1.5,.67,1.5,1.5v20.9c0,.83-.67,1.5-1.5,1.5H95.5c-.83,0-1.5-.67-1.5-1.5ZM160.02,24.9c-1.32,0-2.02,1.61-1.08,2.55s1.95,1.76,3.07,2.5c2.07,1.37,4.33,2.52,6.8,3.45,2.47,.93,5.08,1.63,7.85,2.1,2.31,.39,4.64,.69,6.97,.89,.78,.07,1.38,.71,1.38,1.49v20.6c0,.84-.69,1.52-1.52,1.51-4.06-.06-8-.34-11.83-.84-4.3-.57-8.38-1.47-12.25-2.7-3.87-1.23-7.45-2.85-10.75-4.85-2.83-1.71-5.35-3.75-7.57-6.1-.6-.63-1.58-.64-2.18-.01-2.27,2.36-4.82,4.39-7.65,6.11-3.3,2-6.87,3.62-10.7,4.85-3.83,1.23-7.92,2.13-12.25,2.7-3.85,.5-7.77,.78-11.78,.84-.84,.01-1.52-.67-1.52-1.51v-20.6c0-.78,.6-1.42,1.38-1.49,2.33-.2,4.64-.5,6.92-.89,2.73-.47,5.33-1.17,7.8-2.1,2.47-.93,4.73-2.08,6.8-3.45,1.12-.74,2.14-1.58,3.07-2.5s.24-2.55-1.08-2.55h-23.38c-.83,0-1.5-.67-1.5-1.5V2.5c0-.83,.67-1.5,1.5-1.5h87c.83,0,1.5,.67,1.5,1.5V23.4c0,.83-.67,1.5-1.5,1.5h-23.48Z"/><path d="M248,36.9c0,8.4-2.45,14.85-7.35,19.35-4.9,4.5-12.42,6.75-22.55,6.75s-17.85-2.25-22.75-6.75c-4.9-4.5-7.35-10.95-7.35-19.35v-10.7c0-8.47,2.45-14.95,7.35-19.45,4.9-4.5,12.48-6.75,22.75-6.75s17.65,2.25,22.55,6.75c4.9,4.5,7.35,10.98,7.35,19.45v10.7Zm-60,52.6v-20.9c0-.83,.67-1.5,1.5-1.5h58c.83,0,1.5,.67,1.5,1.5v20.9c0,.83-.67,1.5-1.5,1.5h-58c-.83,0-1.5-.67-1.5-1.5ZM220.5,24.2c0-.73-.1-1.45-.3-2.15-.2-.7-.93-1.05-2.2-1.05s-2,.35-2.2,1.05c-.2,.7-.3,1.42-.3,2.15v14.6c0,.73,.1,1.45,.3,2.15,.2,.7,.93,1.05,2.2,1.05s2-.35,2.2-1.05c.2-.7,.3-1.42,.3-2.15v-14.6ZM253.5,1h24c.83,0,1.5,.67,1.5,1.5V89.5c0,.83-.67,1.5-1.5,1.5h-24c-.83,0-1.5-.67-1.5-1.5V2.5c0-.83,.67-1.5,1.5-1.5Z"/><path d="M330.83,20.9c-1.35,0-2.02,1.66-1.04,2.59,1.2,1.14,2.6,2.01,4.21,2.61,2.31,.87,4.86,1.48,7.67,1.85,.75,.1,1.33,.73,1.33,1.49v17.48c0,.86-.72,1.55-1.58,1.5-2.46-.15-4.9-.39-7.32-.72-2.93-.4-5.73-1.07-8.4-2-2.67-.93-5.17-2.18-7.5-3.75-1.85-1.24-3.53-2.79-5.05-4.64-.6-.73-1.71-.73-2.31,0-1.51,1.85-3.2,3.39-5.05,4.64-2.33,1.57-4.83,2.82-7.5,3.75-2.67,.93-5.47,1.6-8.4,2-2.42,.33-4.85,.57-7.32,.72-.86,.05-1.58-.64-1.58-1.5V29.43c0-.76,.57-1.39,1.33-1.49,2.81-.37,5.36-.98,7.67-1.85,1.61-.61,3.01-1.48,4.18-2.62,.96-.94,.29-2.58-1.06-2.58h-10.03c-.83,0-1.5-.67-1.5-1.5V2.5c0-.83,.67-1.5,1.5-1.5h57.8c.83,0,1.5,.67,1.5,1.5V19.4c0,.83-.67,1.5-1.5,1.5h-10.07Zm-19.33,33.1h33c.83,0,1.5-.67,1.5-1.5h0c0-.83,.67-1.5,1.5-1.5h24c.83,0,1.5,.67,1.5,1.5v37c0,.83-.67,1.5-1.5,1.5h-87c-.83,0-1.5-.67-1.5-1.5V52.5c0-.83,.67-1.5,1.5-1.5h24c.83,0,1.5,.67,1.5,1.5h0c0,.83,.67,1.5,1.5,1.5Zm33,15.5h-33c-.83,0-1.5,.67-1.5,1.5h0c0,.83,.67,1.5,1.5,1.5h33c.83,0,1.5-.67,1.5-1.5h0c0-.83-.67-1.5-1.5-1.5Zm3-68.5h24c.83,0,1.5,.67,1.5,1.5V46.5c0,.83-.67,1.5-1.5,1.5h-24c-.83,0-1.5-.67-1.5-1.5V2.5c0-.83,.67-1.5,1.5-1.5Z"/></svg>